<svg aria-hidden="true" style="position: absolute; width: 0; height: 0; overflow: hidden;" version="1.1"
    xmlns="http://www.w3.org/2000/svg" xmlns:xlink="http://www.w3.org/1999/xlink">
    <defs>
        <symbol id="icon-facebook" viewBox="0 0 32 32">
            <path fill="#fff" style="fill: var(--color1, #fff)"
                d="M31.739 5.9c0-2.662-2.337-5.011-4.986-5.011h-20.098c-2.649 0-4.986 2.349-4.986 5.011v20.2c0 2.662 2.337 5.011 4.986 5.011h10.127v-11.431h-3.739v-5.011h3.739v-2.036c0-3.445 2.493-6.42 5.609-6.42h4.051v5.011h-4.051c-0.467 0-0.935 0.47-0.935 1.409v2.036h4.986v5.011h-4.986v11.431h5.297c2.649 0 4.986-2.349 4.986-5.011v-20.2z">
            </path>
        </symbol>
        <symbol id="icon-vkontakte" viewBox="0 0 32 32">
            <path fill="#fff" style="fill: var(--color1, #fff)"
                d="M31.112 22.713c0-0.121-0.12-0.121-0.12-0.242-0.481-0.966-1.562-2.174-3.004-3.502-0.721-0.604-1.081-1.087-1.322-1.328-0.36-0.483-0.36-0.845-0.24-1.328 0.12-0.362 0.601-0.966 1.442-2.053 0.481-0.604 0.721-0.966 1.081-1.328 1.802-2.415 2.643-3.985 2.403-4.71l-0.12-0.121c-0.12-0.121-0.24-0.242-0.481-0.242-0.24-0.121-0.601-0.121-0.961 0h-4.566c-0.12 0-0.12 0-0.36 0-0.12 0-0.24 0-0.24 0h-0.24l-0.12 0.121c-0.12 0.121-0.12 0.121-0.12 0.242-0.481 1.328-1.081 2.415-1.682 3.623-0.36 0.604-0.721 1.208-1.081 1.691s-0.601 0.845-0.841 1.087c-0.24 0.242-0.481 0.362-0.601 0.604-0.12 0.121-0.36 0.242-0.36 0.121-0.12 0-0.24 0-0.24-0.121-0.12-0.121-0.24-0.242-0.36-0.362s-0.12-0.362-0.24-0.604c0-0.242 0-0.483 0-0.604s0-0.483 0-0.725c0-0.362 0-0.604 0-0.725 0-0.362 0-0.845 0-1.328s0-0.845 0-1.087c0-0.242 0-0.604 0-0.845 0-0.362 0-0.604 0-0.725s-0.12-0.362-0.12-0.483c-0.12-0.121-0.24-0.242-0.36-0.362s-0.36-0.121-0.481-0.242c-0.601-0.121-1.322-0.242-2.163-0.242-1.922 0-3.244 0.121-3.725 0.362-0.24 0.121-0.481 0.242-0.601 0.483-0.24 0.242-0.24 0.362-0.12 0.362 0.601 0.121 1.081 0.362 1.322 0.725l0.12 0.242c0.12 0.121 0.12 0.362 0.24 0.725s0.12 0.725 0.12 1.208c0 0.725 0 1.449 0 1.932 0 0.604-0.12 0.966-0.12 1.328s-0.12 0.604-0.24 0.725c-0.12 0.242-0.12 0.362-0.24 0.362 0 0 0 0.121-0.12 0.121s-0.24 0.121-0.481 0.121c-0.12 0-0.36-0.121-0.481-0.242-0.24-0.121-0.481-0.362-0.601-0.604-0.24-0.242-0.481-0.604-0.721-1.087s-0.601-0.966-0.841-1.691l-0.24-0.483c-0.12-0.242-0.36-0.725-0.601-1.328s-0.481-1.087-0.721-1.691c-0.12-0.242-0.24-0.362-0.36-0.483h-0.12c0 0-0.12-0.121-0.24-0.121s-0.24-0.121-0.36-0.121h-4.325c-0.481 0-0.721 0.121-0.841 0.242l-0.12 0.121c0 0 0 0.121 0 0.242s0 0.242 0.12 0.483c0.601 1.449 1.322 2.898 2.043 4.347 0.721 1.328 1.442 2.536 1.922 3.381 0.601 0.845 1.081 1.691 1.682 2.415s0.961 1.208 1.081 1.449c0.24 0.242 0.36 0.362 0.481 0.483l0.36 0.362c0.24 0.241 0.601 0.604 1.081 0.966s1.081 0.724 1.682 1.087c0.601 0.362 1.322 0.604 2.043 0.845 0.841 0.242 1.562 0.362 2.283 0.242h1.802c0.36 0 0.601-0.121 0.841-0.362l0.12-0.121c0-0.121 0.12-0.121 0.12-0.242s0-0.241 0-0.483c0-0.483 0-0.845 0.12-1.208s0.12-0.604 0.24-0.845c0.12-0.242 0.24-0.362 0.36-0.483s0.24-0.242 0.24-0.242h0.12c0.24-0.121 0.601 0 0.841 0.242 0.36 0.241 0.721 0.604 0.961 0.966s0.601 0.724 1.081 1.208 0.841 0.845 1.081 0.966l0.36 0.241c0.24 0.121 0.481 0.242 0.841 0.362s0.601 0.121 0.841 0.121l4.085-0.121c0.36 0 0.721-0.121 0.961-0.242s0.36-0.241 0.36-0.483c0-0.121 0-0.362 0-0.483-0.24-0.242-0.24-0.362-0.24-0.483z">
            </path>
        </symbol>
        <symbol id="icon-youtube" viewBox="0 0 32 32">
            <path fill="#fff" style="fill: var(--color1, #fff)"
                d="M31.592 13.179c0-0.69-0.114-1.494-0.114-2.413-0.114-0.919-0.229-1.839-0.343-2.643-0.229-0.919-0.572-1.609-1.258-2.184-0.572-0.575-1.372-0.919-2.172-1.034-2.63-0.345-6.518-0.46-11.778-0.46s-9.262 0.115-11.778 0.46c-0.8 0.115-1.601 0.46-2.173 1.034s-1.029 1.264-1.258 2.184c-0.229 0.804-0.343 1.609-0.343 2.643-0.114 0.919-0.114 1.724-0.114 2.413s0 1.494 0 2.643c0 1.149 0 2.069 0 2.643 0 0.69 0.114 1.494 0.114 2.413 0.114 0.919 0.229 1.839 0.343 2.643 0.229 0.919 0.572 1.609 1.258 2.184 0.572 0.575 1.372 0.919 2.173 1.034 2.63 0.345 6.518 0.46 11.778 0.46s9.262-0.115 11.778-0.46c0.8-0.115 1.601-0.46 2.172-1.034s1.029-1.264 1.258-2.184c0.229-0.804 0.343-1.609 0.343-2.643 0.114-0.919 0.114-1.724 0.114-2.413s0-1.494 0-2.643c0-1.149 0-2.069 0-2.643zM21.987 16.742l-9.033 5.631c-0.114 0.115-0.343 0.23-0.572 0.23s-0.343 0-0.572-0.115c-0.343-0.23-0.572-0.575-0.572-1.034v-11.378c0-0.46 0.229-0.804 0.572-1.034s0.8-0.23 1.143 0l9.033 5.631c0.343 0.23 0.572 0.575 0.572 0.919s-0.229 0.919-0.572 1.149z">
            </path>
        </symbol>
        <symbol id="icon-instagram" viewBox="0 0 32 32">
            <path fill="#fff" style="fill: var(--color1, #fff)"
                d="M26.516 0.889h-21.511c-2.429 0-4.279 1.86-4.279 4.301v21.621c0 2.441 1.85 4.301 4.279 4.301h21.511c2.429 0 4.279-1.86 4.279-4.301v-21.621c0-2.441-1.851-4.301-4.279-4.301zM15.76 25.067c4.973 0 9.021-3.952 9.021-8.718 0-0.814-0.116-1.744-0.347-2.441h2.544v12.321c0 0.581-0.463 1.163-1.156 1.163h-20.123c-0.578 0-1.157-0.465-1.157-1.163v-12.438h2.66c-0.231 0.814-0.347 1.627-0.347 2.441-0.116 4.882 3.932 8.834 8.905 8.834zM15.76 21.58c-3.238 0-5.783-2.557-5.783-5.696s2.544-5.696 5.783-5.696c3.238 0 5.783 2.557 5.783 5.696 0 3.255-2.544 5.696-5.783 5.696zM26.863 9.142c0 0.697-0.578 1.279-1.272 1.279h-3.238c-0.694 0-1.272-0.581-1.272-1.279v-3.138c0-0.697 0.578-1.279 1.272-1.279h3.238c0.694 0 1.272 0.581 1.272 1.279v3.138z">
            </path>
        </symbol>
        <symbol id="icon-menu" viewBox="0 0 32 32">
            <path fill="none" stroke="#fff" style="stroke: var(--color1, #fff)" stroke-linejoin="miter"
                stroke-linecap="butt" stroke-miterlimit="4" stroke-width="1.6"
                d="M8.939 4.87c0 2.248-1.822 4.070-4.070 4.070s-4.070-1.822-4.070-4.070c0-2.248 1.822-4.070 4.070-4.070s4.070 1.822 4.070 4.070z">
            </path>
            <path fill="none" stroke="#fff" style="stroke: var(--color1, #fff)" stroke-linejoin="miter"
                stroke-linecap="butt" stroke-miterlimit="4" stroke-width="1.6"
                d="M8.939 16c0 2.248-1.822 4.070-4.070 4.070s-4.070-1.822-4.070-4.070c0-2.248 1.822-4.070 4.070-4.070s4.070 1.822 4.070 4.070z">
            </path>
            <path fill="none" stroke="#fff" style="stroke: var(--color1, #fff)" stroke-linejoin="miter"
                stroke-linecap="butt" stroke-miterlimit="4" stroke-width="1.6"
                d="M8.939 27.13c0 2.248-1.822 4.070-4.070 4.070s-4.070-1.822-4.070-4.070c0-2.248 1.822-4.070 4.070-4.070s4.070 1.822 4.070 4.070z">
            </path>
            <path fill="none" stroke="#fff" style="stroke: var(--color1, #fff)" stroke-linejoin="miter"
                stroke-linecap="butt" stroke-miterlimit="4" stroke-width="1.6"
                d="M20.070 4.87c0 2.248-1.822 4.070-4.070 4.070s-4.070-1.822-4.070-4.070c0-2.248 1.822-4.070 4.070-4.070s4.070 1.822 4.070 4.070z">
            </path>
            <path fill="none" stroke="#fff" style="stroke: var(--color1, #fff)" stroke-linejoin="miter"
                stroke-linecap="butt" stroke-miterlimit="4" stroke-width="1.6"
                d="M20.070 16c0 2.248-1.822 4.070-4.070 4.070s-4.070-1.822-4.070-4.070c0-2.248 1.822-4.070 4.070-4.070s4.070 1.822 4.070 4.070z">
            </path>
            <path fill="none" stroke="#fff" style="stroke: var(--color1, #fff)" stroke-linejoin="miter"
                stroke-linecap="butt" stroke-miterlimit="4" stroke-width="1.6"
                d="M20.070 27.13c0 2.248-1.822 4.070-4.070 4.070s-4.070-1.822-4.070-4.070c0-2.248 1.822-4.070 4.070-4.070s4.070 1.822 4.070 4.070z">
            </path>
            <path fill="none" stroke="#fff" style="stroke: var(--color1, #fff)" stroke-linejoin="miter"
                stroke-linecap="butt" stroke-miterlimit="4" stroke-width="1.6"
                d="M31.2 4.87c0 2.248-1.822 4.070-4.070 4.070s-4.070-1.822-4.070-4.070c0-2.248 1.822-4.070 4.070-4.070s4.070 1.822 4.070 4.070z">
            </path>
            <path fill="none" stroke="#fff" style="stroke: var(--color1, #fff)" stroke-linejoin="miter"
                stroke-linecap="butt" stroke-miterlimit="4" stroke-width="1.6"
                d="M31.2 16c0 2.248-1.822 4.070-4.070 4.070s-4.070-1.822-4.070-4.070c0-2.248 1.822-4.070 4.070-4.070s4.070 1.822 4.070 4.070z">
            </path>
            <path fill="none" stroke="#fff" style="stroke: var(--color1, #fff)" stroke-linejoin="miter"
                stroke-linecap="butt" stroke-miterlimit="4" stroke-width="1.6"
                d="M31.2 27.13c0 2.248-1.822 4.070-4.070 4.070s-4.070-1.822-4.070-4.070c0-2.248 1.822-4.070 4.070-4.070s4.070 1.822 4.070 4.070z">
            </path>
        </symbol>
        <symbol id="icon-order" viewBox="0 0 32 32">
            <path fill="#fff" style="fill: var(--color1, #fff)"
                d="M16.749 0c0.535 0.106 1.089 0.18 1.614 0.327 3.023 0.875 4.938 3.010 5.143 5.7 0 0.049 0.020 0.098 0.029 0.196 0.136 0 0.272 0 0.399 0 1.283 0 2.576 0 3.859 0 0.797 0 1.186 0.294 1.264 0.957 0.262 2.454 0.515 4.915 0.768 7.369 0.311 2.92 0.622 5.848 0.933 8.767 0.156 1.431 0.36 2.863 0.437 4.294 0.078 1.472-0.748 2.601-2.139 3.443-1.099 0.663-2.353 0.932-3.704 0.932-4.861-0.008-9.731 0-14.592 0-1.526 0-3.043 0.041-4.569-0.016-1.925-0.065-3.509-0.736-4.627-2.094-0.768-0.932-0.846-1.979-0.71-3.075 0.282-2.265 0.496-4.539 0.729-6.813 0.233-2.233 0.476-4.457 0.71-6.69 0.214-1.979 0.418-3.958 0.622-5.938 0.010-0.090 0.010-0.188 0.029-0.278 0.097-0.572 0.476-0.859 1.176-0.867 1.303-0.008 2.596 0 3.898 0 0.146 0 0.292 0 0.447 0 0.058-0.973 0.282-1.873 0.797-2.707 1.225-1.938 3.121-3.083 5.687-3.443 0.107-0.016 0.214-0.041 0.321-0.065 0.486 0 0.982 0 1.478 0zM8.496 8.015c-1.196 0-2.343 0-3.509 0-0.010 0.065-0.029 0.114-0.029 0.172-0.292 2.797-0.593 5.602-0.885 8.399-0.379 3.648-0.758 7.303-1.147 10.951-0.068 0.671 0.194 1.227 0.719 1.709 0.817 0.736 1.866 0.99 3.023 0.99 6.222 0.008 12.453 0.008 18.675 0 0.7 0 1.371-0.098 2.012-0.36 1.021-0.417 1.915-1.309 1.74-2.454-0.107-0.687-0.156-1.39-0.224-2.085-0.253-2.454-0.515-4.915-0.768-7.369-0.292-2.764-0.583-5.537-0.875-8.301-0.058-0.548-0.126-1.096-0.185-1.636-1.186 0-2.343 0-3.519 0 0 0.114 0 0.213 0 0.303 0 0.793 0.010 1.587-0.010 2.372-0.010 0.499-0.476 0.867-1.050 0.859-0.554-0.008-1.001-0.368-1.030-0.851-0.010-0.164 0-0.335 0-0.499 0-0.728 0-1.456 0-2.184-3.636 0-7.223 0-10.839 0 0 0.082 0 0.147 0 0.204 0 0.81 0.010 1.627 0 2.437-0.010 0.523-0.467 0.9-1.050 0.891-0.574 0-1.011-0.376-1.030-0.875-0.010-0.155 0-0.311 0-0.466-0.019-0.736-0.019-1.464-0.019-2.208zM21.425 6.207c-0.136-1.709-1.021-3.018-2.771-3.844-1.896-0.891-3.811-0.826-5.629 0.172-1.546 0.851-2.333 2.102-2.43 3.672 3.626 0 7.213 0 10.83 0z">
            </path>
        </symbol>
        <symbol id="icon-phone" viewBox="0 0 32 32">
            <path fill="none" stroke="#fff" style="stroke: var(--color1, #fff)" stroke-linejoin="round"
                stroke-linecap="round" stroke-miterlimit="4" stroke-width="1.4545"
                d="M30.545 23.156v4.364c0.002 0.405-0.081 0.806-0.244 1.177s-0.4 0.704-0.699 0.978c-0.298 0.274-0.651 0.482-1.035 0.612s-0.79 0.178-1.194 0.142c-4.476-0.486-8.775-2.016-12.553-4.465-3.514-2.233-6.494-5.213-8.727-8.727-2.458-3.795-3.988-8.115-4.465-12.611-0.036-0.402 0.011-0.808 0.14-1.19s0.336-0.734 0.608-1.033c0.272-0.298 0.604-0.537 0.973-0.7s0.769-0.248 1.173-0.248h4.364c0.706-0.007 1.39 0.243 1.925 0.703s0.885 1.099 0.984 1.799c0.184 1.396 0.526 2.768 1.018 4.087 0.196 0.521 0.238 1.086 0.122 1.63s-0.386 1.043-0.777 1.439l-1.847 1.847c2.071 3.641 5.086 6.657 8.727 8.727l1.847-1.847c0.395-0.391 0.895-0.661 1.439-0.777s1.11-0.074 1.63 0.122c1.32 0.492 2.691 0.834 4.087 1.018 0.707 0.1 1.352 0.456 1.813 1s0.706 1.239 0.689 1.953z">
            </path>
        </symbol>
        <symbol id="icon-comments" viewBox="0 0 36 32">
            <path
                d="M34 28.161c0 1.422 0.813 2.653 2 3.256v0.498c-0.332 0.045-0.671 0.070-1.016 0.070-2.125 0-4.042-0.892-5.398-2.321-0.819 0.218-1.688 0.336-2.587 0.336-4.971 0-9-3.582-9-8s4.029-8 9-8c4.971 0 9 3.582 9 8 0 1.73-0.618 3.331-1.667 4.64-0.213 0.463-0.333 0.979-0.333 1.522zM16 0c8.702 0 15.781 5.644 15.995 12.672-1.537-0.685-3.237-1.047-4.995-1.047-2.986 0-5.807 1.045-7.942 2.943-2.214 1.968-3.433 4.607-3.433 7.432 0 1.396 0.298 2.747 0.867 3.993-0.163 0.004-0.327 0.007-0.492 0.007-0.849 0-1.682-0.054-2.495-0.158-3.437 3.437-7.539 4.053-11.505 4.144v-0.841c2.142-1.049 4-2.961 4-5.145 0-0.305-0.024-0.604-0.068-0.897-3.619-2.383-5.932-6.024-5.932-10.103 0-7.18 7.163-13 16-13z">
            </path>
        </symbol>
        <symbol id="icon-search" viewBox="0 0 32 32">
            <path
                d="M31.008 27.231l-7.58-6.447c-0.784-0.705-1.622-1.029-2.299-0.998 1.789-2.096 2.87-4.815 2.87-7.787 0-6.627-5.373-12-12-12s-12 5.373-12 12 5.373 12 12 12c2.972 0 5.691-1.081 7.787-2.87-0.031 0.677 0.293 1.515 0.998 2.299l6.447 7.58c1.104 1.226 2.907 1.33 4.007 0.23s0.997-2.903-0.23-4.007zM12 20c-4.418 0-8-3.582-8-8s3.582-8 8-8 8 3.582 8 8-3.582 8-8 8z">
            </path>
        </symbol>
        <symbol id="icon-download" viewBox="0 0 32 32">
            <path d="M23 14l-8 8-8-8h5v-12h6v12zM15 22h-15v8h30v-8h-15zM28 26h-4v-2h4v2z"></path>
        </symbol>
        <symbol id="icon-like" viewBox="0 0 32 32">
            <path
                d="M23.6 2c-3.363 0-6.258 2.736-7.599 5.594-1.342-2.858-4.237-5.594-7.601-5.594-4.637 0-8.4 3.764-8.4 8.401 0 9.433 9.516 11.906 16.001 21.232 6.13-9.268 15.999-12.1 15.999-21.232 0-4.637-3.763-8.401-8.4-8.401z">
            </path>
        </symbol>
        <symbol id="icon-more" viewBox="0 0 32 32">
            <path fill="#adacac" style="fill: var(--color1, #adacac)"
                d="M16.996 1c0-0.552-0.448-1-1-1s-1 0.448-1 1v13.996h-13.996c-0.552 0-1 0.448-1 1s0.448 1 1 1h13.996v13.996c0 0.552 0.448 1 1 1s1-0.448 1-1v-13.996h13.996c0.552 0 1-0.448 1-1s-0.448-1-1-1h-13.996v-13.996z">
            </path>
        </symbol>
    </defs>
</svg>